<svg xmlns="http://www.w3.org/2000/svg" fill-rule="evenodd" stroke-linejoin="round" stroke-miterlimit="2" clip-rule="evenodd" viewBox="0 0 16 16"><g><rect style="fill-rule:nonzero;fill:#8eef98" width="4.005" height="5.004" x="4.001" y="4.016" rx="1" ry="1"/><rect style="fill-rule:nonzero;fill:#8eef98" width="3.006" height="5.004" x="8.999" y="7.016" rx="1" ry="1"/><rect style="fill-rule:nonzero;fill:#8eef98" width="4.005" height="1.99" x="4.004" y="10.023" rx="1" ry="1"/><rect style="fill-rule:nonzero;fill:#8eef98" width="3.006" height="2.031" x="9" y="3.991" rx="1" ry="1"/></g><path fill-rule="nonzero" d="M 13 1 C 14.097 1 15 1.903 15 3 L 15 13 C 15 14.097 14.097 15 13 15 L 3 15 C 1.903 15 1 14.097 1 13 L 1 3 C 1 1.903 1.903 1 3 1 L 13 1 Z M 3 13 L 13 13 L 13 3 L 3 3 L 3 13 Z" style="fill-rule:nonzero;fill:#8eef98"/></svg>