<?xml version="1.0" encoding="utf-8"?>
<svg clip-rule="evenodd" fill-rule="evenodd" stroke-linejoin="round" stroke-miterlimit="2" viewBox="0 0 16 16" xmlns="http://www.w3.org/2000/svg">
  <g>
    <rect style="fill-rule: nonzero; fill: rgb(142, 239, 152);" x="4.001" y="4.016" width="4.005" height="5.004" rx="1" ry="1"/>
    <rect style="fill-rule: nonzero; fill: rgb(142, 239, 152);" x="8.999" y="7.016" width="3.006" height="5.004" rx="1" ry="1"/>
    <rect style="fill-rule: nonzero; fill: rgb(142, 239, 152);" x="4.004" y="10.023" width="4.005" height="1.99" rx="1" ry="1"/>
    <rect style="fill-rule: nonzero; fill: rgb(142, 239, 152);" x="9" y="3.991" width="3.006" height="2.031" rx="1" ry="1"/>
  </g>
  <path d="M 13 1 C 14.097 1 15 1.903 15 3 L 15 13 C 15 14.097 14.097 15 13 15 L 3 15 C 1.903 15 1 14.097 1 13 L 1 3 C 1 1.903 1.903 1 3 1 L 13 1 Z M 3 13 L 13 13 L 13 3 L 3 3 L 3 13 Z" fill-rule="nonzero" style="fill-rule: nonzero; fill: rgb(142, 239, 152);"/>
</svg>