<?xml version="1.0" encoding="UTF-8" standalone="no"?>
<svg
   width="16"
   height="16"
   version="1.1"
   id="svg1"
   xmlns="http://www.w3.org/2000/svg"
   xmlns:svg="http://www.w3.org/2000/svg">
  <defs
     id="defs1" />
  <path
     fill="#e0e0e0"
     d="m 9,1 0.564,2.258 0.69,0.28 1.988,-1.194 1.414,1.414 L 12.46,5.752 12.746,6.436 15,7 V 9 H 9.75 C 10.487539,7.6669775 9.5234194,6.0317774 8,6.0317774 6.4765806,6.0317774 5.5124609,7.6669775 6.25,9 H 1 V 7 L 3.26,6.436 3.538,5.748 2.344,3.758 3.758,2.344 5.752,3.54 6.438,3.254 7,1 Z"
     id="path1" />
  <path
     fill="#e0e0e0"
     d="m 9.0061583,15.000001 0.564,-2.258 0.6900007,-0.28 1.987999,1.194 1.414,-1.414 -1.196,-1.994 0.286,-0.6840005 2.254,-0.564 V 7 H 9.7561583 c 0.7375387,1.3330235 -0.2265806,2.9682225 -1.75,2.9682225 -1.5234194,0 -2.4875391,-1.635199 -1.75,-2.9682224 h -5.25 v 2.0000004 l 2.26,0.564 0.278,0.6880005 -1.194,1.99 1.414,1.414 1.9939999,-1.196 0.686,0.286 0.5620001,2.254 z"
     id="path2" />
</svg>
