<svg width="16" height="16" viewBox="0 0 16 16" fill="none" xmlns="http://www.w3.org/2000/svg">
<g clip-path="url(#clip0_110_26)">
<path d="M13.3334 5.33333H11.4601C11.1594 4.81182 10.7446 4.36512 10.2467 4.02667L11.3334 2.94L10.3934 2L8.94675 3.44667C8.64008 3.37333 8.32675 3.33333 8.00008 3.33333C7.67341 3.33333 7.36008 3.37333 7.06008 3.44667L5.60675 2L4.66675 2.94L5.74675 4.02667C5.25341 4.36667 4.84008 4.81333 4.54008 5.33333H2.66675V6.66667H4.06008C4.02675 6.88667 4.00008 7.10667 4.00008 7.33333V8H2.66675V9.33333H4.00008V10C4.00008 10.2267 4.02675 10.4467 4.06008 10.6667H2.66675V12H4.54008C5.23341 13.1933 6.52008 14 8.00008 14C9.48008 14 10.7667 13.1933 11.4601 12H13.3334V10.6667H11.9401C11.9734 10.4467 12.0001 10.2267 12.0001 10V9.33333H13.3334V8H12.0001V7.33333C12.0001 7.10667 11.9734 6.88667 11.9401 6.66667H13.3334V5.33333ZM9.33341 10.6667H6.66675V9.33333H9.33341V10.6667ZM9.33341 8H6.66675V6.66667H9.33341V8Z" fill="#5865F2"/>
</g>
<defs>
<clipPath id="clip0_110_26">
<rect width="16" height="16" fill="white"/>
</clipPath>
</defs>
</svg>
